<?xml version="1.0" encoding="utf-8"?>
<!-- Generator: Adobe Illustrator 17.0.0, SVG Export Plug-In . SVG Version: 6.00 Build 0)  -->
<!DOCTYPE svg PUBLIC "-//W3C//DTD SVG 1.1//EN" "http://www.w3.org/Graphics/SVG/1.1/DTD/svg11.dtd">
<svg version="1.1" id="Capa_1" xmlns="http://www.w3.org/2000/svg" xmlns:xlink="http://www.w3.org/1999/xlink" x="0px" y="0px"
	 width="132.3px" height="41.851px" viewBox="0 0 132.3 41.851" enable-background="new 0 0 132.3 41.851" xml:space="preserve">
<g>
	<g>
		<path fill="#F08700" d="M40.27,15.11c-0.23-0.64-0.82-1.06-1.5-0.98c-0.76,0.09-1.36,0.79-1.22,1.55c0.07,0.35,0.19,0.54,0.49,0.9
			c1.25,1.57,0.87,4.04,0.87,4.04S41.38,18.46,40.27,15.11z"/>
		<path fill="#ED7102" d="M38.26,14.29c-0.5,0.25-0.82,0.81-0.71,1.39c0.07,0.35,0.19,0.54,0.49,0.9c1.25,1.57,0.87,4.04,0.87,4.04
			S40.78,16.39,38.26,14.29z"/>
		<path fill="#97C11D" d="M36.46,19.7c-0.27-0.86-1.01-1.47-1.93-1.41c-1.02,0.06-1.87,0.95-1.74,1.97
			c0.06,0.48,0.22,0.74,0.58,1.24c1.56,2.19,0.87,5.46,0.87,5.46S37.7,24.26,36.46,19.7z"/>
		<path fill="#75B729" d="M33.93,18.42c-0.71,0.34-1.25,1.03-1.14,1.84c0.06,0.48,0.22,0.74,0.58,1.24
			c1.56,2.19,0.87,5.46,0.87,5.46S37.24,21.21,33.93,18.42z"/>
		<path fill="#04BAEE" d="M41.53,23.92c-0.05-1.02-0.71-1.89-1.73-2.08c-1.14-0.21-2.32,0.54-2.45,1.7
			c-0.06,0.54,0.04,0.88,0.3,1.52c1.12,2.83-0.53,6.24-0.53,6.24S41.66,29.27,41.53,23.92z"/>
		<path fill="#00B0EA" d="M38.74,21.91c-0.69,0.33-1.3,0.84-1.39,1.63c-0.06,0.54,0.04,0.88,0.3,1.52c1.12,2.83-0.53,6.24-0.53,6.24
			S41.99,26.44,38.74,21.91z"/>
		<path fill="#005CA8" d="M31.73,31.68c-2.42,4.65-7.31,7.8-12.91,7.8c-8.06,0-14.59-6.53-14.59-14.59
			c0-8.05,6.53-14.58,14.59-14.58c3.63,0,6.56,1.53,7.57,1.96c8.15,3.43,10.31-4.87,6.76-8.12c-0.42-0.38-0.81-0.72-1.31-1.04
			C28.67,1.1,24.9,0,20.88,0C9.35,0,0,9.35,0,20.88C0,32.4,9.35,41.75,20.88,41.75c5.74,0,11.05-2.2,14.71-6.07
			C39.08,32,34.33,26.69,31.73,31.68z"/>
		<path fill="#009EE2" d="M35.93,35.27c1.06-1.53,1.47-3.4,0.04-4.84c-1.22-1.22-3.39-1.25-4.47,0.09
			c-0.33,0.41-0.61,1.25-0.87,2.12c-3.4,9.36-14.26,8.62-14.26,8.62S28.09,44.63,35.93,35.27z"/>
	</g>
	<path fill="#F08700" d="M40.27,15.11c-0.23-0.64-0.82-1.06-1.5-0.98c-0.76,0.09-1.36,0.79-1.22,1.55c0.07,0.35,0.19,0.54,0.49,0.9
		c1.25,1.57,0.87,4.04,0.87,4.04S41.38,18.46,40.27,15.11z"/>
	<path fill="#EB6507" d="M38.26,14.29c-0.5,0.25-0.82,0.81-0.71,1.39c0.07,0.35,0.19,0.54,0.49,0.9c1.25,1.57,0.87,4.04,0.87,4.04
		S40.78,16.39,38.26,14.29z"/>
	<path fill="#C7D300" d="M36.46,19.7c-0.27-0.86-1.01-1.47-1.93-1.41c-1.02,0.06-1.87,0.95-1.74,1.97c0.06,0.48,0.22,0.74,0.58,1.24
		c1.56,2.19,0.87,5.46,0.87,5.46S37.7,24.26,36.46,19.7z"/>
	<path fill="#94C01E" d="M33.93,18.42c-0.71,0.34-1.25,1.03-1.14,1.84c0.06,0.48,0.22,0.74,0.58,1.24c1.56,2.19,0.87,5.46,0.87,5.46
		S37.24,21.21,33.93,18.42z"/>
	<path fill="#5AC4F1" d="M41.53,23.92c-0.05-1.02-0.71-1.89-1.73-2.08c-1.14-0.21-2.32,0.54-2.45,1.7c-0.06,0.54,0.04,0.88,0.3,1.52
		c1.12,2.83-0.53,6.24-0.53,6.24S41.66,29.27,41.53,23.92z"/>
	<path fill="#00A6E6" d="M38.74,21.91c-0.69,0.33-1.3,0.84-1.39,1.63c-0.06,0.54,0.04,0.88,0.3,1.52c1.12,2.83-0.53,6.24-0.53,6.24
		S41.99,26.44,38.74,21.91z"/>
	<path fill="#154093" d="M32.35,32.81c-0.53-1.26,0.04-2.65,0.07-2.64c0.02,0.01-0.13,0.43-0.69,1.51c-2.42,4.65-7.31,7.8-12.91,7.8
		c-8.06,0-14.59-6.53-14.59-14.59c0-8.05,6.53-14.58,14.59-14.58c3.63,0,6.56,1.53,7.57,1.96c4.13,1.74,6.73,0.46,7.82-1.64
		c-3.35-3.81-8.26-6.21-13.73-6.21c-10.08,0-18.26,8.17-18.26,18.26c0,9.39,7.01,17.77,16.18,17.77
		C27.6,40.45,30.77,31.84,32.35,32.81z"/>
	<path fill="#94C01E" d="M35.93,35.27c1.06-1.53,1.47-3.4,0.04-4.84c-1.22-1.22-3.39-1.25-4.47,0.09c-0.33,0.41-0.61,1.25-0.87,2.12
		c-3.4,9.36-14.26,8.62-14.26,8.62S28.09,44.63,35.93,35.27z"/>
	<path fill="#50AD31" d="M35.24,29.9c-1.23-0.65-2.85-0.48-3.74,0.62c-0.33,0.41-0.61,1.25-0.87,2.12
		c-3.4,9.36-14.26,8.62-14.26,8.62S30.94,44.16,35.24,29.9z"/>
	<g>
		<path fill-rule="evenodd" clip-rule="evenodd" fill="#154093" d="M72.73,10.27c1.06,0-2.33,9.93-8.27,16.45
			C66.31,20.08,70.61,10.27,72.73,10.27z M59.7,12.22c2.81,0,1.13,4.36-1.68,5.06c-1.58,0.38-2.95-0.02-4.49-0.37
			C55.16,14.2,57.32,12.22,59.7,12.22z M68.73,29.96c-0.59,0.59-3.85,2.74-4.57,2.74c-0.73,0-0.73-1.5-0.26-3.73
			c7.41-7.72,13.11-20.38,9.03-20.38c-4.68,0-10.42,13.39-11.31,20.79c-2.26,1.76-4.77,2.9-7.48,2.9c-4.85,0-4.25-8.44-1.17-14.37
			c3.04,1.02,8.21,2.61,9.89-3.56c0.79-2.9-1.9-4.03-3.19-4.03c-3.91,0-7.18,2.66-9.38,6.22c-2.72,0.08-3.78,1.2-3.78,1.2
			c-0.3,0.37,0.05,0.96,0.45,0.58c0.25-0.23,1.3-0.74,2.79-0.85c-3.92,7.23-3.63,17.33,4.07,17.33c2.46,0,5.12-1.41,7.68-3.57
			c0.01,1.79,0.48,2.93,1.55,2.93c2.42,0,4.99-2.52,5.88-3.36C68.93,30.8,69.32,29.37,68.73,29.96z"/>
		<path fill-rule="evenodd" clip-rule="evenodd" fill="#154093" d="M76.53,20.48c3.15,0-1.58,6.36-5.02,6.79
			C72.41,24.01,74.6,20.48,76.53,20.48z M77.66,30.31c-0.91,1.11-3.65,2.42-4.59,2.42c-1.93,0-2.28-2.12-1.77-4.6
			c10.54-2.74,8.57-9.18,5.58-9.18c-7.46,0-12.69,15.41-4.6,15.41c2.67,0,5.38-2.97,5.66-3.31C78.36,30.53,78.23,29.62,77.66,30.31z
			"/>
		<path fill-rule="evenodd" clip-rule="evenodd" fill="#154093" d="M81.66,32.04c-2.42,0,0.69-11.33,4.69-11.33
			C89.02,20.71,85.69,32.04,81.66,32.04z M104.18,31.34c-0.35,0.35-1.93,1.08-2.27,0.71c-0.55-0.59,4.8-13.18,0.59-13.15
			c-3.11,0.03-6.42,4.64-6.42,4.64l-0.04,0.21c0.57-2.5,0.76-5.63-2.13-4.9c-0.28,0.08-0.38,0.65,0,0.79
			c1.33,0.51-1.06,6.55-2.14,10.88c-0.97,0.62-2.93,1.81-3.74,1.81c-1.08,0,2.91-12.22,3.21-12.81c0.3-0.59-0.3-0.74-1.09-0.69
			c0,0-0.79,0.05-0.98,0.94c-0.02,0.08-0.08,0.28-0.16,0.55c-0.21-0.3-1.04-1.29-2.51-1.29c-5.97,0-11.75,15.23-4.24,15.23
			c0.69,0,2.79-1.04,4.19-2.56c-0.21,1.67-0.11,2.56,0.59,2.56c0.95,0,2.73-1.04,4.42-2.35c-0.32,1.68-0.27,2.32,0.57,2.32
			c1.43,0,1.26-1.93,2.54-5.35c1.41-2.88,4.17-7.42,6.1-7.51c2.91-0.13-3.55,12.84-1.47,12.84c1.8,0,5.01-2.05,5.42-2.47
			C105.33,31.01,104.52,31,104.18,31.34z"/>
	</g>
	<g>
		<path fill="#94C01E" d="M106.2,31.02c0,0-0.35-0.59-0.99,0.05s0.25,3.21,2.81,3.21c2.57,0,4.89-3.63,2.92-12.59
			c-2.24-10.16,3.99-9.97,3.99-9.97c1.19,0.05,1.59-2.47-0.04-2.47c0,0-7.87-0.08-5.46,12.49c2.32,12.1-1.51,10.91-1.51,10.91
			C107.18,32.65,106.2,31.02,106.2,31.02z"/>
		<path fill="#94C01E" d="M116.56,18.73c0,0-1.27,13.56,0.65,13.56c1.81,0,1.92-13.19,2.12-13.68c0.2-0.5,1.5-0.76,1.58,0.05
			c0.08,0.82,0.65,15.63-4.1,15.6c-4.19-0.03-2.12-15.43-1.97-15.87C114.98,17.94,116.52,17.84,116.56,18.73z"/>
		<path fill="#94C01E" d="M124.17,18.76c0,0-0.74,14.26-0.84,14.71c-0.1,0.44-1.63,0.89-1.73,0s0.79-12.15,0.64-13.92
			C122.09,17.77,124.22,18.16,124.17,18.76z"/>
		<path fill="#94C01E" d="M131.45,17.92l-6.12,0.29c0,0-0.4,0.1-0.45,0.35c-0.05,0.25-0.39,0.89,0.5,0.99
			c0.32,0.03,1.16,0.06,2.12,0.07c0.12,1.99-0.74,12.97-0.64,13.85c0.1,0.89,1.63,0.44,1.72,0c0.09-0.38,0.64-10.76,0.8-13.85
			c1.07-0.02,1.98-0.06,2.14-0.15C132.61,18.9,132.53,17.77,131.45,17.92z"/>
	</g>
</g>
</svg>
